# Blender v2.79 (sub 0) OBJ File: 'PU-advance-super-weapon.blend'
# www.blender.org
mtllib wavefront.mtl
o Cube_Cube.001
v -0.750000 -1.750000 1.000000
v -1.000000 0.250000 1.000000
v 0.000000 -1.750000 1.250000
v 0.750000 -1.750000 1.000000
v 0.000000 0.250000 1.250000
v 1.000000 0.250000 1.000000
v -0.750000 -1.750000 1.250000
v -1.000000 0.250000 1.250000
v 0.000000 0.250000 1.500000
v 1.000000 0.250000 1.250000
v 0.000000 -1.750000 1.500000
v 0.750000 -1.750000 1.250000
v 0.200000 0.250000 1.200000
v -0.200000 0.250000 1.200000
v 0.200000 0.250000 1.450000
v -0.200000 0.250000 1.450000
v 0.200000 2.250000 1.200000
v -0.200000 2.250000 1.200000
v 0.200000 2.250000 1.450000
v -0.200000 2.250000 1.450000
v 0.600000 2.250000 1.100000
v -0.600000 2.250000 1.100000
v 0.600000 2.250000 1.350000
v -0.600000 2.250000 1.350000
vt 0.269531 0.500000
vt 0.027344 0.976562
vt 0.207031 0.976562
vt 0.078125 0.500000
vt 0.027344 0.500000
vt 0.207031 0.976562
vt 0.269531 0.500000
vt 0.078125 0.500000
vt 0.636719 0.500000
vt 0.636719 0.976562
vt 0.695312 0.976562
vt 0.695312 0.500000
vt 0.636719 0.976562
vt 0.636719 0.500000
vt 0.695312 0.500000
vt 0.695312 0.976562
vt 0.753906 0.925781
vt 0.753906 0.976562
vt 0.816406 0.976562
vt 0.816406 0.925781
vt 0.753906 0.550781
vt 0.753906 0.730469
vt 0.816406 0.730469
vt 0.816406 0.550781
vt 0.753906 0.550781
vt 0.816406 0.550781
vt 0.335938 0.500000
vt 0.382812 0.500000
vt 0.574219 0.500000
vt 0.335938 0.976562
vt 0.574219 0.500000
vt 0.382812 0.500000
vt 0.515625 0.976562
vt 0.515625 0.976562
vt 0.753906 0.925781
vt 0.816406 0.925781
vt 0.753906 0.878906
vt 0.753906 0.777344
vt 0.816406 0.777344
vt 0.816406 0.878906
vt 0.695312 0.023438
vt 0.636719 0.023438
vt 0.816406 0.500000
vt 0.753906 0.500000
vt 0.753906 0.023438
vt 0.816406 0.023438
vt 0.636719 0.023438
vt 0.695312 0.023438
vt 0.382812 0.023438
vt 0.480469 0.023438
vt 0.753906 0.500000
vt 0.816406 0.500000
vt 0.816406 0.023438
vt 0.753906 0.023438
vt 0.480469 0.023438
vt 0.382812 0.023438
vt 0.078125 0.023438
vt 0.171875 0.023438
vt 0.753906 0.777344
vt 0.753906 0.878906
vt 0.816406 0.878906
vt 0.816406 0.777344
vt 0.171875 0.023438
vt 0.078125 0.023438
vt 0.269531 0.500000
vt 0.027344 0.976562
vt 0.207031 0.976562
vt 0.078125 0.500000
vt 0.027344 0.500000
vt 0.207031 0.976562
vt 0.269531 0.500000
vt 0.078125 0.500000
vt 0.636719 0.500000
vt 0.636719 0.976562
vt 0.695312 0.976562
vt 0.695312 0.500000
vt 0.636719 0.976562
vt 0.636719 0.500000
vt 0.695312 0.500000
vt 0.695312 0.976562
vt 0.753906 0.925781
vt 0.753906 0.976562
vt 0.816406 0.976562
vt 0.816406 0.925781
vt 0.753906 0.550781
vt 0.753906 0.730469
vt 0.816406 0.730469
vt 0.816406 0.550781
vt 0.753906 0.550781
vt 0.816406 0.550781
vt 0.335938 0.500000
vt 0.382812 0.500000
vt 0.574219 0.500000
vt 0.335938 0.976562
vt 0.574219 0.500000
vt 0.382812 0.500000
vt 0.515625 0.976562
vt 0.515625 0.976562
vt 0.753906 0.925781
vt 0.816406 0.925781
vt 0.753906 0.878906
vt 0.753906 0.777344
vt 0.816406 0.777344
vt 0.816406 0.878906
vt 0.695312 0.023438
vt 0.636719 0.023438
vt 0.816406 0.500000
vt 0.753906 0.500000
vt 0.753906 0.023438
vt 0.816406 0.023438
vt 0.636719 0.023438
vt 0.695312 0.023438
vt 0.382812 0.023438
vt 0.480469 0.023438
vt 0.753906 0.500000
vt 0.816406 0.500000
vt 0.816406 0.023438
vt 0.753906 0.023438
vt 0.480469 0.023438
vt 0.382812 0.023438
vt 0.078125 0.023438
vt 0.171875 0.023438
vt 0.753906 0.777344
vt 0.753906 0.878906
vt 0.816406 0.878906
vt 0.816406 0.777344
vt 0.171875 0.023438
vt 0.078125 0.023438
vn 0.3160 -0.0395 0.9479
vn 0.2425 -0.0000 0.9701
vn -0.3160 -0.0395 0.9479
vn -0.2425 -0.0000 0.9701
vn -0.9923 -0.1240 0.0000
vn 0.9923 -0.1240 0.0000
vn 0.0000 1.0000 0.0000
vn 0.0000 -1.0000 0.0000
vn -0.2425 0.0000 -0.9701
vn 0.2425 0.0000 -0.9701
vn -0.3160 0.0395 -0.9479
vn 0.3160 0.0395 -0.9479
vn -0.9806 0.1961 0.0000
vn 1.0000 0.0000 0.0000
vn 0.9806 0.1961 0.0000
vn -1.0000 0.0000 0.0000
vn -0.3160 -0.0395 -0.9479
vn 0.3160 -0.0395 -0.9479
vn 0.3160 0.0395 0.9479
vn -0.3160 0.0395 0.9479
usemtl Material.001
s off
f 10/1/1 11/2/1 12/3/1 12/3/1
f 11/2/2 10/1/2 15/4/2 9/5/2
f 7/6/3 11/2/3 8/7/3 8/7/3
f 9/5/4 16/8/4 8/7/4 11/2/4
f 2/9/5 1/10/5 7/11/5 8/12/5
f 4/13/6 6/14/6 10/15/6 12/16/6
f 13/17/7 5/18/7 9/19/7 15/20/7
f 1/21/8 3/22/8 11/23/8 7/24/8
f 3/22/8 4/25/8 12/26/8 11/23/8
f 5/27/9 13/28/9 6/29/9 3/30/9
f 5/27/10 3/30/10 2/31/10 14/32/10
f 4/33/11 3/30/11 6/29/11 6/29/11
f 1/34/12 2/31/12 3/30/12 3/30/12
f 5/18/7 14/35/7 16/36/7 9/19/7
f 21/37/7 17/38/7 19/39/7 23/40/7
f 8/12/13 24/41/13 22/42/13 2/9/13
f 16/43/14 14/44/14 18/45/14 20/46/14
f 10/15/15 6/14/15 21/47/15 23/48/15
f 6/29/9 13/28/9 17/49/9 21/50/9
f 13/51/16 15/52/16 19/53/16 17/54/16
f 14/32/10 2/31/10 22/55/10 18/56/10
f 16/8/4 20/57/4 24/58/4 8/7/4
f 18/59/7 22/60/7 24/61/7 20/62/7
f 10/1/2 23/63/2 19/64/2 15/4/2
